Normalized EMG Linear Envelopes
nRows=285
nColumns=4

endheader
time	 med_gas_r	  soleus_r	 tib_ant_r	
2.96069	  0.083214	  0.051208	  0.024577	
2.99395	  0.082017	  0.052091	  0.024729	
3.02722	  0.081144	  0.053549	  0.024899	
3.06048	  0.080459	  0.055567	  0.024973	
3.09375	  0.079956	  0.057896	  0.024958	
3.12702	  0.079792	  0.059996	  0.024884	
3.16028	  0.080027	  0.061461	  0.024719	
3.19355	  0.080808	  0.062367	  0.024451	
3.22681	  0.082330	  0.062736	  0.024121	
3.26008	  0.084494	  0.062525	  0.023735	
3.29335	  0.086921	  0.062074	  0.023382	
3.32661	  0.089146	  0.061829	  0.023168	
3.35988	  0.090626	  0.061988	  0.023102	
3.39315	  0.091350	  0.062753	  0.022983	
3.42641	  0.091658	  0.064084	  0.022706	
3.45968	  0.091882	  0.065756	  0.022395	
3.49294	  0.092346	  0.067524	  0.022181	
3.52621	  0.093330	  0.068993	  0.022171	
3.55948	  0.094544	  0.069814	  0.022336	
3.59274	  0.095463	  0.069966	  0.022675	
3.62601	  0.095764	  0.069477	  0.023183	
3.65927	  0.095255	  0.068175	  0.023752	
3.69254	  0.093666	  0.066091	  0.024214	
3.72581	  0.090828	  0.063579	  0.024547	
3.75907	  0.087486	  0.061217	  0.024859	
3.79234	  0.084357	  0.059673	  0.025204	
3.8256	  0.081826	  0.059338	  0.025551	
3.85887	  0.079751	  0.060308	  0.025651	
3.89214	  0.077661	  0.062527	  0.025222	
3.9254	  0.075260	  0.065488	  0.024297	
3.95867	  0.073019	  0.068355	  0.023109	
3.99194	  0.071561	  0.070383	  0.021843	
4.0252	  0.071178	  0.071540	  0.020664	
4.05847	  0.071745	  0.071949	  0.019657	
4.09173	  0.072844	  0.071749	  0.018836	
4.125	  0.074263	  0.071017	  0.018231	
4.15827	  0.076143	  0.069876	  0.017804	
4.19153	  0.078565	  0.068325	  0.017527	
4.2248	  0.081314	  0.066461	  0.017462	
4.25806	  0.084060	  0.064399	  0.017661	
4.29133	  0.086484	  0.062218	  0.018123	
4.3246	  0.088499	  0.060142	  0.018794	
4.35786	  0.089816	  0.058404	  0.019613	
4.39113	  0.089999	  0.057230	  0.020449	
4.4244	  0.088639	  0.056842	  0.021173	
4.45766	  0.086024	  0.057240	  0.021659	
4.49093	  0.082935	  0.058106	  0.021861	
4.52419	  0.079844	  0.058992	  0.021955	
4.55746	  0.076973	  0.059856	  0.022081	
4.59073	  0.074451	  0.060927	  0.022215	
4.62399	  0.072404	  0.062186	  0.022249	
4.65726	  0.071122	  0.063381	  0.022171	
4.69052	  0.070585	  0.064173	  0.022008	
4.72379	  0.070428	  0.064258	  0.021852	
4.75706	  0.070435	  0.063925	  0.021728	
4.79032	  0.070526	  0.063521	  0.021618	
4.82359	  0.070677	  0.063237	  0.021481	
4.85685	  0.070989	  0.063214	  0.021340	
4.89012	  0.071816	  0.063776	  0.021151	
4.92339	  0.073357	  0.065117	  0.020915	
4.95665	  0.075559	  0.067093	  0.020618	
4.98992	  0.078012	  0.069199	  0.020243	
5.02319	  0.080189	  0.070621	  0.019804	
5.05645	  0.081968	  0.070589	  0.019347	
5.08972	  0.083642	  0.069059	  0.018915	
5.12298	  0.085305	  0.066757	  0.018535	
5.15625	  0.086970	  0.064252	  0.018194	
5.18952	  0.088674	  0.061650	  0.017828	
5.22278	  0.090339	  0.059161	  0.017396	
5.25605	  0.092242	  0.057254	  0.016975	
5.28931	  0.094345	  0.056135	  0.016637	
5.32258	  0.096048	  0.055796	  0.016397	
5.35585	  0.096403	  0.055974	  0.016191	
5.38911	  0.095102	  0.056395	  0.015942	
5.42238	  0.092470	  0.057066	  0.015574	
5.45565	  0.089143	  0.057998	  0.015108	
5.48891	  0.085836	  0.059023	  0.014738	
5.52218	  0.082936	  0.060015	  0.014663	
5.55544	  0.080668	  0.060903	  0.015062	
5.58871	  0.079327	  0.061769	  0.016163	
5.62198	  0.079157	  0.062901	  0.018325	
5.65524	  0.080587	  0.064792	  0.022289	
5.68851	  0.084105	  0.067934	  0.029022	
5.72177	  0.089979	  0.072591	  0.039429	
5.75504	  0.098305	  0.078591	  0.054151	
5.78831	  0.108755	  0.085907	  0.073323	
5.82157	  0.120598	  0.094382	  0.096378	
5.85484	  0.133355	  0.103626	  0.122294	
5.8881	  0.146145	  0.112626	  0.149248	
5.92137	  0.157710	  0.120363	  0.174929	
5.95464	  0.168114	  0.127815	  0.198960	
5.9879	  0.178744	  0.136959	  0.221995	
6.02117	  0.189629	  0.148933	  0.243975	
6.05444	  0.200086	  0.163832	  0.264512	
6.0877	  0.209654	  0.180562	  0.283243	
6.12097	  0.218154	  0.197776	  0.299397	
6.15423	  0.224939	  0.214302	  0.313445	
6.1875	  0.229084	  0.229313	  0.325764	
6.22077	  0.231149	  0.243928	  0.337485	
6.25403	  0.231823	  0.258703	  0.349393	
6.2873	  0.231408	  0.272323	  0.359315	
6.32056	  0.230853	  0.283868	  0.367032	
6.35383	  0.231891	  0.294704	  0.374572	
6.3871	  0.235456	  0.305784	  0.383046	
6.42036	  0.241636	  0.316131	  0.392505	
6.45363	  0.250235	  0.325650	  0.403469	
6.4869	  0.261063	  0.334146	  0.417336	
6.52016	  0.274016	  0.341096	  0.433854	
6.55343	  0.288864	  0.346382	  0.451534	
6.58669	  0.304422	  0.350629	  0.469123	
6.61996	  0.318457	  0.353996	  0.485769	
6.65323	  0.330535	  0.357534	  0.503799	
6.68649	  0.341100	  0.361455	  0.522935	
6.71976	  0.351559	  0.366434	  0.542056	
6.75302	  0.362856	  0.372384	  0.560123	
6.78629	  0.374210	  0.378058	  0.574105	
6.81956	  0.384675	  0.383181	  0.581691	
6.85282	  0.394172	  0.389154	  0.585297	
6.88609	  0.402700	  0.397503	  0.588190	
6.91935	  0.409541	  0.408194	  0.592684	
6.95262	  0.415546	  0.420216	  0.599517	
6.98589	  0.422824	  0.432639	  0.610579	
7.01915	  0.432831	  0.445747	  0.627164	
7.05242	  0.444506	  0.460059	  0.647949	
7.08569	  0.455496	  0.474826	  0.671400	
7.11895	  0.463431	  0.488239	  0.696040	
7.15222	  0.468490	  0.498036	  0.721335	
7.18548	  0.471024	  0.501872	  0.745200	
7.21875	  0.469587	  0.497920	  0.764908	
7.25202	  0.463761	  0.487095	  0.777209	
7.28528	  0.455135	  0.472542	  0.779879	
7.31855	  0.444597	  0.456789	  0.771535	
7.35181	  0.432858	  0.443206	  0.752616	
7.38508	  0.422695	  0.434832	  0.725020	
7.41835	  0.417802	  0.433653	  0.694516	
7.45161	  0.418766	  0.438553	  0.668327	
7.48488	  0.424141	  0.446145	  0.651900	
7.51815	  0.433811	  0.455296	  0.645943	
7.55141	  0.447475	  0.466013	  0.647736	
7.58468	  0.462920	  0.475810	  0.654692	
7.61794	  0.477043	  0.480746	  0.664350	
7.65121	  0.489049	  0.481547	  0.674473	
7.68448	  0.498926	  0.480815	  0.684687	
7.71774	  0.506629	  0.481365	  0.695337	
7.75101	  0.512096	  0.483815	  0.705884	
7.78427	  0.516499	  0.488890	  0.713649	
7.81754	  0.518615	  0.495086	  0.718220	
7.85081	  0.516029	  0.500520	  0.721034	
7.88407	  0.509592	  0.505730	  0.723887	
7.91734	  0.500197	  0.509493	  0.727391	
7.9506	  0.487373	  0.508339	  0.732216	
7.98387	  0.473118	  0.502112	  0.737142	
8.01714	  0.458355	  0.492565	  0.739696	
8.0504	  0.445092	  0.481160	  0.738347	
8.08367	  0.435108	  0.470157	  0.733658	
8.11694	  0.429134	  0.460299	  0.728834	
8.1502	  0.428457	  0.451873	  0.725166	
8.18347	  0.432046	  0.444670	  0.721706	
8.21673	  0.437563	  0.438442	  0.718156	
8.25	  0.443755	  0.434080	  0.714222	
8.28327	  0.451437	  0.433631	  0.711439	
8.31653	  0.460989	  0.435548	  0.710839	
8.3498	  0.470651	  0.436072	  0.714099	
8.38306	  0.481013	  0.438279	  0.722223	
8.41633	  0.493123	  0.446746	  0.732996	
8.4496	  0.506362	  0.463175	  0.744055	
8.48286	  0.519801	  0.486718	  0.754287	
8.51613	  0.533520	  0.513739	  0.764544	
8.5494	  0.547044	  0.539851	  0.776061	
8.58266	  0.557132	  0.560115	  0.786045	
8.61593	  0.560993	  0.570057	  0.790304	
8.64919	  0.558870	  0.569057	  0.785935	
8.68246	  0.551646	  0.558624	  0.773290	
8.71573	  0.538474	  0.540670	  0.755665	
8.74899	  0.519459	  0.517747	  0.736165	
8.78226	  0.496135	  0.492523	  0.717038	
8.81552	  0.472345	  0.470057	  0.699955	
8.84879	  0.450815	  0.453759	  0.685927	
8.88206	  0.434390	  0.446039	  0.674078	
8.91532	  0.424354	  0.446773	  0.662775	
8.94859	  0.420078	  0.452917	  0.652668	
8.98185	  0.420763	  0.462546	  0.643689	
9.01512	  0.425123	  0.473240	  0.634445	
9.04839	  0.431517	  0.482479	  0.623426	
9.08165	  0.439281	  0.490010	  0.610696	
9.11492	  0.448053	  0.497486	  0.599679	
9.14819	  0.458486	  0.507904	  0.595232	
9.18145	  0.469409	  0.519909	  0.599419	
9.21472	  0.478811	  0.531242	  0.611774	
9.24798	  0.485335	  0.540994	  0.630319	
9.28125	  0.488364	  0.547865	  0.655449	
9.31452	  0.487802	  0.550682	  0.688604	
9.34778	  0.484142	  0.549194	  0.726952	
9.38105	  0.478357	  0.543443	  0.762899	
9.41431	  0.472781	  0.535224	  0.789626	
9.44758	  0.469094	  0.526809	  0.804158	
9.48085	  0.467555	  0.518415	  0.808282	
9.51411	  0.468461	  0.510404	  0.806821	
9.54738	  0.473910	  0.505341	  0.803678	
9.58065	  0.483560	  0.503941	  0.800863	
9.61391	  0.494143	  0.503625	  0.797979	
9.64718	  0.503736	  0.502378	  0.792697	
9.68044	  0.513393	  0.500395	  0.783546	
9.71371	  0.522148	  0.498057	  0.772836	
9.74698	  0.529248	  0.495550	  0.764661	
9.78024	  0.533739	  0.493376	  0.760659	
9.81351	  0.533764	  0.491691	  0.758298	
9.84677	  0.530496	  0.490580	  0.754380	
9.88004	  0.525620	  0.489155	  0.749011	
9.91331	  0.521102	  0.488344	  0.743143	
9.94657	  0.518237	  0.488968	  0.736264	
9.97984	  0.515120	  0.487167	  0.727143	
10.0131	  0.508653	  0.480182	  0.716270	
10.0464	  0.499308	  0.469650	  0.705510	
10.0796	  0.489586	  0.459155	  0.696207	
10.1129	  0.481022	  0.450127	  0.688290	
10.1462	  0.473778	  0.443753	  0.680822	
10.1794	  0.466980	  0.439720	  0.674391	
10.2127	  0.459529	  0.435961	  0.668227	
10.246	  0.449881	  0.430932	  0.661199	
10.2792	  0.438954	  0.425277	  0.652633	
10.3125	  0.428136	  0.419923	  0.642167	
10.3458	  0.419764	  0.416226	  0.631646	
10.379	  0.415385	  0.415512	  0.622842	
10.4123	  0.415860	  0.417909	  0.615792	
10.4456	  0.419251	  0.421432	  0.610808	
10.4788	  0.421581	  0.423732	  0.608019	
10.5121	  0.420074	  0.423757	  0.609434	
10.5454	  0.414531	  0.420990	  0.616731	
10.5786	  0.407135	  0.416741	  0.628747	
10.6119	  0.399245	  0.412611	  0.642180	
10.6452	  0.391733	  0.408565	  0.652869	
10.6784	  0.385042	  0.403577	  0.657044	
10.7117	  0.378475	  0.397300	  0.652610	
10.745	  0.369524	  0.388848	  0.639646	
10.7782	  0.356939	  0.376898	  0.619503	
10.8115	  0.340909	  0.360005	  0.591945	
10.8448	  0.321939	  0.338202	  0.557796	
10.878	  0.301516	  0.313053	  0.518401	
10.9113	  0.281097	  0.285779	  0.474943	
10.9446	  0.261301	  0.257894	  0.429485	
10.9778	  0.243396	  0.231095	  0.385123	
11.0111	  0.229345	  0.208487	  0.347593	
11.0444	  0.220279	  0.192769	  0.321685	
11.0776	  0.216060	  0.184969	  0.308147	
11.1109	  0.215816	  0.185031	  0.304102	
11.1442	  0.218567	  0.191436	  0.306267	
11.1774	  0.223018	  0.201133	  0.310435	
11.2107	  0.225936	  0.208228	  0.310527	
11.244	  0.224782	  0.207951	  0.303239	
11.2772	  0.219974	  0.201920	  0.290361	
11.3105	  0.212084	  0.192971	  0.273996	
11.3437	  0.201550	  0.182961	  0.254078	
11.377	  0.189453	  0.172897	  0.230059	
11.4103	  0.176444	  0.162164	  0.202100	
11.4435	  0.163262	  0.150081	  0.172135	
11.4768	  0.150468	  0.136918	  0.142426	
11.5101	  0.138930	  0.123442	  0.114242	
11.5433	  0.128705	  0.110641	  0.088790	
11.5766	  0.120323	  0.100228	  0.067488	
11.6099	  0.114478	  0.093651	  0.050985	
11.6431	  0.111221	  0.091108	  0.039093	
11.6764	  0.110244	  0.091703	  0.031309	
11.7097	  0.111123	  0.094517	  0.026956	
11.7429	  0.112901	  0.098816	  0.025154	
11.7762	  0.114811	  0.103796	  0.025072	
11.8095	  0.116719	  0.108744	  0.025959	
11.8427	  0.118585	  0.113140	  0.027222	
11.876	  0.120367	  0.116612	  0.028417	
11.9093	  0.121963	  0.119657	  0.029323	
11.9425	  0.123385	  0.122841	  0.029890	
11.9758	  0.125030	  0.126316	  0.030309	
12.0091	  0.126681	  0.129019	  0.030747	
12.0423	  0.127819	  0.129386	  0.031153	
12.0756	  0.127742	  0.126625	  0.031232	
12.1089	  0.126093	  0.121177	  0.030753	
12.1421	  0.122644	  0.113653	  0.029928	
12.1754	  0.117671	  0.104978	  0.029036	
12.2087	  0.112082	  0.096501	  0.028244	
12.2419	  0.106530	  0.089111	  0.027692	
12.2752	  0.101309	  0.083281	  0.027383	
12.3085	  0.096486	  0.079110	  0.027261	
12.3417	  0.092052	  0.076402	  0.027348	
12.375	  0.088540	  0.074881	  0.027693	
12.4083	  0.086327	  0.074217	  0.028231	
